<?xml version="1.0" encoding="UTF-8" standalone="no"?>
<!DOCTYPE svg PUBLIC "-//W3C//DTD SVG 1.1//EN" "http://www.w3.org/Graphics/SVG/1.1/DTD/svg11.dtd">
<svg width="100%" height="100%" viewBox="0 0 2222 2500" version="1.1" xmlns="http://www.w3.org/2000/svg" xmlns:xlink="http://www.w3.org/1999/xlink" xml:space="preserve" xmlns:serif="http://www.serif.com/" style="fill-rule:evenodd;clip-rule:evenodd;stroke-linejoin:round;stroke-miterlimit:2;">
    <path d="M1112.08,12.31L1111.17,12.307C1071.42,12.268 1031.76,24.268 991.622,47.948C874.916,116.767 290.607,451.53 116.491,552.38C44.785,593.9 9.893,657.428 9.876,739.992C9.834,867.493 9.823,994.994 9.82,1122.5L9.819,1377.5C9.816,1505 9.806,1632.5 9.764,1760C9.764,1800.71 18.303,1836.78 35.513,1867.87C53.204,1899.84 80.056,1926.58 116.396,1947.61C290.521,2048.46 874.907,2383.2 991.588,2452.04C1070.06,2498.35 1146.68,2500 1225.73,2454.37C1518.85,2285.12 1812.36,2116.57 2105.61,1947.51C2141.95,1926.48 2168.8,1899.73 2186.5,1867.78C2203.68,1836.69 2212.24,1800.62 2212.24,1759.9C2212.24,1759.9 2212.24,1080.08 2212.12,740.069C2212.11,698.447 2203.2,661.667 2185.2,630.11C2167.52,599.061 2141.04,573.045 2105.52,552.475C1812.31,383.409 1518.81,214.86 1225.7,45.621C1187.42,23.522 1149.71,12.52 1112.08,12.31ZM1470.27,1452.86L1470.26,1452.86L1471.96,1449.88C1471.4,1450.87 1470.84,1451.86 1470.27,1452.86L1826.05,1658.97C1685.98,1901.38 1425.18,2065.34 1125.86,2068.61L1116.74,2068.66C812.93,2068.66 547.77,1903.17 406.495,1657.4C337.529,1537.42 298.07,1398.32 298.07,1249.99C298.07,797.867 664.589,431.331 1116.73,431.331L1116.74,431.339C1419.59,431.339 1684,595.813 1825.63,840.291L1824.25,837.938L1467.92,1043.1C1397.72,924.242 1269.03,844.022 1121.38,842.367L1116.73,842.341C891.599,842.341 709.081,1024.86 709.081,1249.99C709.007,1320.94 727.548,1390.69 762.845,1452.24C833.112,1574.91 965.209,1657.65 1116.74,1657.65C1267.99,1657.65 1399.93,1575.2 1470.27,1452.86ZM1749.56,1014.47L1749.56,1130.58L1865.68,1130.58L1865.68,1014.47L1923.73,1014.47L1923.73,1130.58L2039.84,1130.58L2039.84,1188.63L1923.73,1188.63L1923.73,1304.74L2039.84,1304.74L2039.84,1362.79L1923.73,1362.79L1923.73,1478.91L1865.68,1478.91L1865.68,1362.79L1749.56,1362.79L1749.56,1478.91L1691.51,1478.91L1691.51,1362.79L1575.4,1362.79L1575.4,1304.74L1691.51,1304.74L1691.51,1188.63L1575.4,1188.63L1575.4,1130.58L1691.51,1130.58L1691.51,1014.47L1749.56,1014.47ZM1865.68,1188.63L1749.56,1188.63L1749.56,1304.74L1865.68,1304.74L1865.68,1188.63Z" style="fill:white;fill-rule:nonzero;"/>
</svg>
