<?xml version="1.0" encoding="UTF-8" standalone="no"?>
<!DOCTYPE svg PUBLIC "-//W3C//DTD SVG 1.1//EN" "http://www.w3.org/Graphics/SVG/1.1/DTD/svg11.dtd">
<svg width="100%" height="100%" viewBox="0 0 107 107" version="1.1" xmlns="http://www.w3.org/2000/svg" xmlns:xlink="http://www.w3.org/1999/xlink" xml:space="preserve" xmlns:serif="http://www.serif.com/" style="fill-rule:evenodd;clip-rule:evenodd;stroke-linejoin:round;stroke-miterlimit:2;">
    <g transform="matrix(1,0,0,1,16,0)">
        <path d="M54.817,40.04L34.194,40.04L34.194,0L54.817,0C65.947,0 75,8.979 75,20.018C75,31.057 65.947,40.04 54.817,40.04ZM40.806,33.482L54.817,33.482C62.301,33.482 68.388,27.441 68.388,20.022C68.388,12.604 62.297,6.563 54.817,6.563L40.806,6.563L40.806,33.482ZM40.811,40.04L20.187,40.04C9.058,40.04 0.004,31.061 0.004,20.022C0.004,8.984 9.058,0 20.187,0L40.811,0L40.811,40.04ZM20.187,6.558C12.703,6.558 6.617,12.599 6.617,20.018C6.617,27.437 12.703,33.482 20.187,33.482L34.198,33.482L34.198,6.558L20.187,6.558ZM40.811,73.518L20.187,73.518C9.058,73.518 0.004,64.539 0.004,53.5C0.004,42.461 9.058,33.482 20.187,33.482L40.811,33.482L40.811,73.518ZM20.187,40.04C12.703,40.04 6.617,46.081 6.617,53.5C6.617,60.919 12.708,66.96 20.187,66.96L34.198,66.96L34.198,40.04L20.187,40.04ZM20.295,107C9.107,107 0,98.021 0,86.982C0,75.943 9.053,66.964 20.183,66.964L40.806,66.964L40.806,86.764C40.806,97.923 31.605,107 20.295,107ZM20.187,73.518C16.59,73.523 13.141,74.942 10.597,77.465C8.053,79.989 6.621,83.409 6.617,86.978C6.617,94.401 12.753,100.437 20.3,100.437C27.964,100.437 34.203,94.303 34.203,86.759L34.203,73.518L20.187,73.518ZM54.817,73.518L54.377,73.518C43.247,73.518 34.194,64.539 34.194,53.5C34.194,42.461 43.247,33.482 54.377,33.482L54.817,33.482C65.947,33.482 75,42.461 75,53.5C75,64.539 65.947,73.518 54.817,73.518ZM54.381,40.04C46.897,40.04 40.811,46.081 40.811,53.5C40.811,60.919 46.901,66.96 54.381,66.96L54.822,66.96C62.306,66.96 68.392,60.919 68.392,53.5C68.392,46.081 62.301,40.04 54.822,40.04L54.381,40.04Z" style="fill:white;fill-rule:nonzero;"/>
    </g>
</svg>
