<svg width="107" height="105" viewBox="0 0 107 105" fill="none" xmlns="http://www.w3.org/2000/svg">
<path d="M53.5 0C23.9413 0 0 24.1037 0 53.833C0 77.6226 15.3277 97.7965 36.5806 104.907C39.2556 105.414 40.2365 103.75 40.2365 102.319C40.2365 101.04 40.1919 97.653 40.1696 93.1669C25.2877 96.4148 22.149 85.9443 22.149 85.9443C19.7148 79.7311 16.1971 78.0713 16.1971 78.0713C11.3509 74.7336 16.5716 74.8009 16.5716 74.8009C21.9439 75.1777 24.766 80.3457 24.766 80.3457C29.5365 88.5777 37.2895 86.2 40.3479 84.8228C40.8294 81.3416 42.207 78.9685 43.7363 77.6226C31.8548 76.2768 19.367 71.6472 19.367 51.0202C19.367 45.1434 21.4401 40.3433 24.873 36.575C24.2712 35.2157 22.4655 29.7427 25.3412 22.3272C25.3412 22.3272 29.8218 20.8827 40.0537 27.8451C44.3337 26.6473 48.8812 26.0552 53.4287 26.0282C57.9762 26.0552 62.5237 26.6473 66.8037 27.8451C76.9687 20.8827 81.4493 22.3272 81.4493 22.3272C84.3249 29.7427 82.5193 35.2157 81.9843 36.575C85.3949 40.3433 87.468 45.1434 87.468 51.0202C87.468 71.701 74.9624 76.2544 63.0587 77.5778C64.9312 79.1928 66.6699 82.4945 66.6699 87.5369C66.6699 94.7415 66.603 100.529 66.603 102.278C66.603 103.691 67.5393 105.374 70.2812 104.835C91.6856 97.7741 107 77.5868 107 53.833C107 24.1037 83.0454 0 53.5 0" fill="white"/>
</svg>
