<svg width="79" height="107" viewBox="0 0 79 107" fill="none" xmlns="http://www.w3.org/2000/svg">
<path d="M25.4459 82.748C25.4459 82.748 21.3532 85.1288 28.3604 85.9313C36.8494 86.9033 41.1877 86.765 50.5381 84.9906C50.5381 84.9906 53.0018 86.5332 56.434 87.8707C35.4614 96.8455 8.97667 87.3446 25.4459 82.748V82.748ZM22.8796 71.0358C22.8796 71.0358 18.2914 74.4286 25.2986 75.1554C34.3679 76.0872 41.5269 76.1674 53.9212 73.7822C53.9212 73.7822 55.6351 75.5165 58.3264 76.4661C32.9798 83.8715 4.73662 77.0457 22.8796 71.0358ZM44.4815 51.1602C49.6499 57.1033 43.1247 62.4534 43.1247 62.4534C43.1247 62.4534 56.2421 55.6855 50.2167 47.2145C44.5886 39.3142 40.2727 35.3908 63.6376 21.8551C63.6376 21.8506 26.9679 30.9993 44.4815 51.1602V51.1602ZM72.2159 91.4152C72.2159 91.4152 75.2464 93.9074 68.8819 95.8335C56.7777 99.4983 18.5012 100.599 7.87425 95.9806C4.05375 94.3176 11.2217 92.0126 13.4711 91.5311C15.8232 91.0228 17.1667 91.1165 17.1667 91.1165C12.9132 88.1249 -10.3089 96.9882 5.37039 99.5295C48.128 106.453 83.307 96.4086 72.2159 91.4152ZM27.4142 58.8955C27.4142 58.8955 7.94567 63.5145 20.523 65.1908C25.8298 65.8997 36.4165 65.7392 46.2757 64.9144C54.3363 64.2367 62.4236 62.7877 62.4236 62.7877C62.4236 62.7877 59.5806 64.0004 57.523 65.4048C37.7555 70.5989 -0.436247 68.1824 10.5611 62.8724C19.8535 58.3873 27.4142 58.8955 27.4142 58.8955ZM62.3344 78.3966C82.4322 67.9639 73.1398 57.937 66.6548 59.2923C65.0703 59.6223 64.3562 59.9076 64.3562 59.9076C64.3562 59.9076 64.9453 58.9847 66.0745 58.5835C78.9063 54.076 88.7744 71.874 61.9327 78.9227C61.9327 78.9183 62.2451 78.6463 62.3344 78.3966ZM50.2167 0C50.2167 0 61.348 11.1193 39.6612 28.2217C22.2726 41.9402 35.6979 49.7647 39.6568 58.6994C29.5074 49.5463 22.0583 41.4988 27.0527 34.0043C34.3902 22.9965 54.7112 17.6642 50.2167 0V0ZM29.3869 106.663C48.6769 107.898 78.2993 105.981 79 96.8633C79 96.8633 77.6521 100.319 63.0574 103.065C46.5971 106.159 26.285 105.798 14.2433 103.814C14.2433 103.81 16.7114 105.851 29.3869 106.663" fill="white"/>
</svg>
