<svg width="107" height="107" viewBox="0 0 107 107" fill="none" xmlns="http://www.w3.org/2000/svg">
<path d="M53.6933 106.857C55.8341 106.84 57.9527 106.728 60.0667 106.438C64.9096 105.811 69.6418 104.516 74.1277 102.591C80.4329 99.8921 86.1812 96.0493 91.0804 91.2578C95.5908 86.8467 99.2829 81.6741 101.986 75.9793C104.296 71.0787 105.834 65.8514 106.545 60.4823C107.211 55.3107 107.148 50.0232 106.344 44.8828C105.672 40.6116 104.482 36.4377 102.799 32.4531C101.726 29.9503 100.45 27.5393 98.9824 25.2441C93.762 17.0543 86.1952 10.4694 77.4842 6.07351C74.3735 4.48849 71.1241 3.1902 67.7766 2.19481H67.7542C68.2861 2.47568 68.8269 2.7833 69.2962 3.09093C69.8325 3.42084 70.3644 3.74183 70.865 4.09404C73.408 5.79728 75.746 7.78688 77.8329 10.0235C82.5839 15.1283 85.8645 21.3832 87.7461 28.0394C89.0155 32.4175 89.6859 36.9471 89.9585 41.4901C90.1552 44.8026 90.1552 48.1374 89.7485 51.4276C89.0825 57.0896 87.2724 62.6178 84.26 67.4595C82.042 71.0672 79.1554 74.2204 75.7546 76.7506C70.1945 80.8879 62.8959 83.3578 55.928 81.7171C54.7775 81.4473 53.6574 81.0619 52.5848 80.5669C51.3625 80.0109 50.1966 79.3391 49.1031 78.5606C47.0322 77.1804 45.1614 75.5228 43.5431 73.6343C41.5799 71.2998 39.9977 68.6713 38.8546 65.8456C37.4545 62.2305 36.707 58.3967 36.6467 54.5216C36.5126 48.8462 37.6523 43.1396 40.4636 38.1597C42.3469 34.845 44.8737 31.9381 47.8964 29.6088C48.902 28.8152 49.9702 28.1242 51.0429 27.4732L51.1144 27.442C49.0037 26.9607 46.8353 26.7806 44.6739 26.907C42.8064 27.0313 40.9623 27.3908 39.1854 27.977C37.5808 28.512 36.0389 29.1808 34.631 29.9833C33.4874 30.638 32.3925 31.374 31.3549 32.1856C30.4118 32.9881 29.4777 33.7906 28.6061 34.66C23.5869 39.8004 20.7041 46.6171 19.5689 53.6344C18.8985 57.9723 18.8985 62.3726 19.1622 66.7863C19.6314 73.0056 20.9097 79.2116 23.3858 84.8959C24.8939 88.4091 26.9251 91.6752 29.4106 94.5837C33.214 98.9651 38.014 102.374 43.409 104.526C46.4309 105.758 49.6089 106.568 52.853 106.933C53.1837 107 53.519 107 53.7871 107L53.6933 106.857ZM40.5798 105.083C39.8891 104.786 39.2175 104.446 38.5686 104.066C35.2047 102.257 32.1339 99.9512 29.4598 97.2275C24.5702 92.1584 21.2941 85.7875 19.4169 79.0377C18.1805 74.415 17.4389 69.6747 17.2045 64.896C17.0064 61.8018 17.0752 58.6964 17.4101 55.6139C18.0135 50.0098 19.6225 44.4637 22.4338 39.6533C24.4541 36.1045 27.1633 32.9929 30.4029 30.5004C32.6202 28.8053 35.0806 27.4527 37.7015 26.488C42.7764 24.6552 48.3228 24.5845 53.443 26.2873C53.5726 26.2873 53.5726 26.2873 53.6441 26.4211C53.7111 26.488 53.8452 26.488 53.9123 26.5548C54.1134 26.6262 54.3771 26.7555 54.6497 26.8848C55.7179 27.4197 56.7906 28.0929 57.7962 28.7572C61.8495 31.5885 65.0824 35.4361 67.1687 39.9118C69.0459 43.9867 69.9174 48.5342 69.9889 53.0103C70.0515 57.8207 69.1844 62.6268 67.1061 67.036C64.5716 72.3542 60.4543 76.7632 55.3157 79.6618C55.7179 79.7956 56.1202 79.8625 56.5269 79.9962C57.5325 80.1924 58.5337 80.3261 59.6019 80.3261C66.1631 80.5267 72.5276 77.3837 77.2116 72.9833C78.0831 72.1809 78.8876 71.3115 79.6251 70.3753C80.6307 69.1715 81.5693 67.9678 82.3694 66.7061C83.4376 65.0342 84.3136 63.3624 85.1136 61.5612C86.1364 59.1769 86.8991 56.6897 87.3886 54.1427C88.2646 49.6666 88.3316 45.128 88.0545 40.6519C87.4512 31.6373 85.0466 22.6182 79.8218 15.1327C79.0492 14.0235 78.2213 12.9537 77.3412 11.9272C75.8757 10.2739 74.2875 8.73295 72.5902 7.31737C70.6966 5.76421 68.6564 4.39803 66.4983 3.23805C64.0634 2.12344 61.5322 1.23111 58.9359 0.571998L57.5951 0.304502C56.661 0.170753 55.7179 0.108338 54.7615 0.0370051C53.2492 -0.0298921 51.7343 -0.00607169 50.225 0.108337C47.0784 0.30896 43.9141 0.821662 40.7854 1.61078C25.7859 5.47165 12.6635 15.8996 5.67777 29.7381C3.44855 34.1465 1.85077 38.8453 0.931194 43.6969C-0.12776 49.2457 -0.284707 54.9284 0.466369 60.5269C1.00271 65.0744 2.13795 69.546 3.94361 73.7992C4.95818 76.3404 6.22751 78.8103 7.63093 81.1464C12.5205 89.0956 19.6225 95.5734 27.7882 100.05C30.8632 101.788 34.0812 103.126 37.4289 104.258C38.439 104.588 39.4401 104.927 40.5083 105.194L40.5798 105.083Z" fill="white"/>
</svg>
