<?xml version="1.0" encoding="UTF-8" standalone="no"?>
<!DOCTYPE svg PUBLIC "-//W3C//DTD SVG 1.1//EN" "http://www.w3.org/Graphics/SVG/1.1/DTD/svg11.dtd">
<svg width="100%" height="100%" viewBox="0 0 1000 1000" version="1.1" xmlns="http://www.w3.org/2000/svg" xmlns:xlink="http://www.w3.org/1999/xlink" xml:space="preserve" xmlns:serif="http://www.serif.com/" style="fill-rule:evenodd;clip-rule:evenodd;stroke-linejoin:round;stroke-miterlimit:2;">
    <g transform="matrix(1.51711,0,0,1.51711,-284.301,-200.022)">
        <path d="M710.836,709.958C587.106,722.167 497.069,693.064 431.798,648.389C345.458,589.292 308.401,497.207 321.546,431.305C332.339,367.836 358.066,327.311 389.926,301.352C437.386,262.682 497,256.001 536.652,250.723C574.676,245.57 606.91,260.858 632.829,282.337C666.111,309.917 689.559,348.449 700.95,379.468C714.182,414.445 703.483,457.695 682.575,492.186C662.795,524.814 633.47,552.805 597.778,549.305C531.562,543.405 488.983,520.379 471.545,487.706C452.031,451.141 468.141,407.573 514.665,384.549C547.317,367.524 570.683,364.189 585.541,376.066C605.379,391.924 609.092,423.401 594.597,444.527C576.1,471.486 555.613,478.769 540.435,473.621C530.325,470.191 522.355,462.831 523.775,454.187C525.134,445.911 532.828,438.266 548.503,432.967C551.796,432.138 553.796,428.791 552.967,425.497C552.138,422.204 548.791,420.204 545.497,421.033C520.762,425.212 509.211,437.535 505.194,449.598C499.355,467.132 510.251,486.965 530.169,497.479C553.053,509.558 589.037,507.735 625.403,469.473C659.97,433.104 658.257,371.032 624.795,334.232C599.568,306.489 554.193,292.462 485.335,315.451C381.311,352.636 348.041,449.591 383.343,530.422C408.45,587.909 474.564,640.148 586.222,654.695C661.752,663.854 733.092,618.432 776.101,549.86C815.756,486.637 829.047,405.432 805.05,340.532C784.177,285.823 737.371,215.887 671.526,176.302C628.436,150.396 577.81,136.538 521.348,145.277C467.415,153.756 387.586,168.502 324.303,223.06C278.316,262.706 239.393,322.462 226.454,416.695C216.418,509.247 267.202,642.954 396.835,707.79C475.226,746.997 580.846,760.434 713.164,722.042C716.499,721.399 718.685,718.17 718.042,714.836C717.399,711.501 714.17,709.315 710.836,709.958Z" style="fill:white;"/>
    </g>
</svg>
