<svg width="107" height="107" viewBox="0 0 107 107" fill="none" xmlns="http://www.w3.org/2000/svg">
<path d="M106.685 42.8823L95.0558 0.664429L51.6396 11.9795L45.2184 23.0067L32.1767 22.9093L0.402832 53.8076L32.1811 84.7104L45.214 84.6085L51.6529 95.6357L95.0513 106.946L106.685 64.7462L100.078 53.8076L106.685 42.8823ZM46.2635 24.7781L79.4722 16.479L60.4123 48.5907H22.2792L46.2635 24.7781V24.7781ZM46.2635 82.8371L22.2792 59.0334H60.4078L79.4722 91.1451L46.2591 82.8459L46.2635 82.8371ZM88.7674 85.9194L69.6942 53.812L88.7674 21.6914L97.9741 53.8076L88.763 85.9149L88.7674 85.9194Z" fill="white"/>
</svg>
