<svg width="107" height="107" viewBox="0 0 107 107" fill="none" xmlns="http://www.w3.org/2000/svg">
<path d="M78.3906 0.000643134C76.6905 -0.022985 75.0453 0.605214 73.7896 1.75749C73.7881 1.75749 73.7866 1.75749 73.7851 1.75749C73.7083 1.82183 73.634 1.88911 73.5622 1.95916L38.0205 41.4702L17.276 24.3679L15.4614 22.7993C14.8356 22.2763 14.0793 21.9356 13.2746 21.8139C12.4698 21.6922 11.6473 21.7943 10.8961 22.1091C10.8782 22.1164 10.8604 22.1239 10.8426 22.1315L2.74187 25.4928C2.62521 25.5417 2.51068 25.5955 2.39857 25.6541C2.3276 25.694 2.25773 25.7359 2.18903 25.7796C2.13185 25.8112 2.07537 25.8441 2.01962 25.8782C1.94681 25.9269 1.87545 25.9777 1.80562 26.0306C1.76035 26.0656 1.71576 26.1015 1.67187 26.1382C1.60497 26.1901 1.53956 26.2439 1.4757 26.2995C1.42101 26.3475 1.3675 26.3968 1.3152 26.4474C1.26642 26.4986 1.21885 26.5509 1.17254 26.6043C1.12208 26.6598 1.07303 26.7166 1.02541 26.7746C0.971571 26.8388 0.919537 26.9046 0.869372 26.9718C0.832658 27.0218 0.796983 27.0726 0.762372 27.1242C0.712621 27.1974 0.665045 27.2721 0.619706 27.3482C0.588939 27.3999 0.55921 27.4522 0.53054 27.5051C0.492819 27.5788 0.457139 27.6535 0.42354 27.7292C0.392176 27.7957 0.362445 27.8629 0.334374 27.9309C0.309068 27.996 0.285284 28.0618 0.263041 28.1281C0.237533 28.1977 0.213748 28.2679 0.191708 28.3387C0.16709 28.4202 0.14479 28.5024 0.124833 28.5852C0.108748 28.6446 0.0938836 28.7044 0.0802497 28.7645C0.0661723 28.8448 0.054279 28.9255 0.0445832 29.0065C0.0337967 29.0809 0.0248772 29.1557 0.0178333 29.2306C0.00676437 29.3543 0.00081481 29.4784 0 29.6026L0 77.4048C0.00518568 78.2848 0.267956 79.1438 0.755542 79.8746C1.24313 80.6054 1.93395 81.1758 2.74187 81.5146L10.8426 84.9386C11.6041 85.2572 12.4386 85.3572 13.2532 85.2274C14.0679 85.0976 14.8308 84.7432 15.457 84.2036L17.276 82.635L38.0205 65.5372L73.5667 105.044C73.6705 105.144 73.7776 105.241 73.8877 105.335C73.9705 105.412 74.0552 105.487 74.1418 105.559C74.2265 105.624 74.3127 105.687 74.4004 105.747C74.4923 105.816 74.586 105.881 74.6813 105.945C74.7764 106.004 74.8731 106.061 74.9711 106.115C75.0663 106.171 75.1629 106.225 75.2609 106.276C75.3607 106.325 75.4618 106.371 75.564 106.415C75.6669 106.463 75.771 106.507 75.8761 106.55C75.9836 106.59 76.0921 106.627 76.2016 106.662C76.2989 106.694 76.3971 106.724 76.4958 106.751C76.6139 106.784 76.7328 106.814 76.8525 106.841C76.953 106.864 77.0541 106.885 77.1556 106.904C77.2667 106.921 77.3782 106.936 77.49 106.948C77.6012 106.963 77.7126 106.975 77.8244 106.984C77.9327 106.991 78.0413 106.996 78.1498 106.998C78.2643 107.001 78.3787 107.001 78.4931 106.998C78.6092 106.993 78.7252 106.986 78.8409 106.975C78.9407 106.967 79.0403 106.957 79.1396 106.944C79.2695 106.925 79.3989 106.903 79.5275 106.877C79.617 106.861 79.7062 106.843 79.795 106.823C79.9147 106.793 80.0337 106.761 80.1516 106.724C80.2534 106.697 80.3545 106.667 80.4548 106.635C80.5598 106.596 80.6639 106.554 80.7669 106.509C80.9024 106.458 81.0362 106.403 81.1681 106.343L103.21 95.6903C104.019 95.2982 104.74 94.7465 105.332 94.068C105.474 93.9072 105.608 93.7397 105.733 93.566C105.739 93.5556 105.745 93.5451 105.751 93.5346C105.879 93.3539 105.998 93.167 106.108 92.9744C106.208 92.7994 106.3 92.6199 106.384 92.4366C106.398 92.4113 106.411 92.3859 106.424 92.3604C106.49 92.2014 106.55 92.04 106.603 91.8764C106.626 91.8214 106.648 91.7661 106.67 91.7106C106.72 91.5524 106.765 91.3925 106.803 91.231C106.818 91.1759 106.831 91.1206 106.844 91.0652C106.874 90.9167 106.899 90.7672 106.919 90.617C106.933 90.5425 106.944 90.4678 106.955 90.3929C106.968 90.2588 106.977 90.1243 106.982 89.9896C106.991 89.8702 106.997 89.7507 107 89.631V17.3853C107 17.3808 107 17.3764 107 17.3719C107 17.3241 107 17.2763 107 17.2285C106.996 17.0038 106.981 16.7794 106.955 16.5562C106.819 15.4365 106.404 14.3693 105.75 13.453C105.095 12.5366 104.222 11.8005 103.21 11.3126L81.1681 0.659459C80.3012 0.243689 79.3554 0.0205158 78.395 0.00512489L78.3906 0.000643134ZM80.2497 30.732V76.2799L52.6171 53.5127L80.2497 30.732ZM13.375 38.1448L27.1913 53.5037L13.3705 68.8581L13.375 38.1448Z" fill="white"/>
</svg>
