<?xml version="1.0" encoding="UTF-8" standalone="no"?>
<!DOCTYPE svg PUBLIC "-//W3C//DTD SVG 1.1//EN" "http://www.w3.org/Graphics/SVG/1.1/DTD/svg11.dtd">
<svg width="100%" height="100%" viewBox="0 0 1201 224" version="1.1" xmlns="http://www.w3.org/2000/svg" xmlns:xlink="http://www.w3.org/1999/xlink" xml:space="preserve" xmlns:serif="http://www.serif.com/" style="fill-rule:evenodd;clip-rule:evenodd;stroke-linejoin:round;stroke-miterlimit:2;">
    <g transform="matrix(-1.00083,-1.22567e-16,1.35153e-16,-1.10361,1201.78,357.569)">
        <path d="M0.779,140.002L52.779,140.002L52.779,200.114L104.779,200.114L104.779,173.39L157.779,173.39L157.779,242.751L209.779,242.751L209.779,216L261.779,216L261.779,266.554L313.779,266.554L313.779,162L365.779,162L365.779,217.05L417.779,217.05L417.779,251.206L470.779,252L470.779,162L522.779,162L522.779,228.197L574.779,228.197L574.779,192.197L626.779,192.197L626.779,216L678.779,216L678.779,162L730.779,162L730.779,264.197L783.779,264.197L783.779,213.67L835.779,213.67L835.779,252L887.779,252L887.779,199.628L939.779,199.628L939.779,156.197L991.779,156.197L991.779,216L1043.78,216L1043.78,252L1096.78,252L1096.78,180L1148.78,180L1148.78,144L1200.78,144L1200.78,324L0.779,324L0.779,140.002Z" style="fill:rgb(22,21,24);"/>
    </g>
</svg>
