<svg width="996" height="275" viewBox="0 0 996 275" fill="none" xmlns="http://www.w3.org/2000/svg">
<path fill-rule="evenodd" clip-rule="evenodd" d="M996 244.444V244.444L854.07 244.444L854.07 122.222L711.31 122.222L711.31 213.889L569.38 213.889L569.38 183.333L426.62 183.333L426.62 91.6667L284.69 91.6667L284.69 183.333L141.93 183.333L141.93 275L2.00272e-05 275L4.40684e-05 9.24802e-06L141.93 2.16559e-05V2.16559e-05L284.69 3.41364e-05V3.41364e-05L426.62 4.65443e-05V4.65443e-05L569.38 5.90248e-05V5.90248e-05L711.31 7.14327e-05V7.14327e-05L854.07 8.39132e-05V8.39132e-05L996 9.63211e-05V9.63211e-05L996 244.444Z" fill="#161518"/>
</svg>
